<?xml version="1.0" standalone="no"?>
<!DOCTYPE svg PUBLIC "-//W3C//DTD SVG 20010904//EN"
 "http://www.w3.org/TR/2001/REC-SVG-20010904/DTD/svg10.dtd">
<svg version="1.0" xmlns="http://www.w3.org/2000/svg"
 width="2411.000000pt" height="2500.000000pt" viewBox="0 0 2411.000000 2500.000000"
 preserveAspectRatio="xMidYMid meet">

<g transform="translate(0.000000,2500.000000) scale(0.100000,-0.100000)"
fill="#000000" stroke="none">
<path d="M12403 23668 c-24 -5 -43 -13 -43 -19 0 -5 -6 -9 -14 -9 -16 0 -83
-71 -115 -123 -12 -20 -27 -35 -31 -32 -5 3 -12 0 -16 -6 -4 -8 -3 -9 4 -5 17
10 15 1 -13 -54 -183 -362 -302 -1055 -344 -2020 -12 -263 -12 -1117 -1 -1460
14 -443 54 -1177 75 -1385 2 -27 7 -86 10 -130 9 -116 52 -604 71 -785 147
-1476 385 -2906 618 -3727 l52 -184 -30 7 c-17 3 -33 8 -34 9 -6 6 -81 282
-118 435 -296 1220 -556 3277 -644 5090 -31 641 -40 1532 -20 2020 40 970 147
1657 321 2054 54 122 57 133 15 56 -346 -641 -524 -2486 -466 -4825 16 -617
64 -1657 85 -1852 6 -49 5 -53 -17 -57 -13 -3 -70 -15 -128 -26 -915 -186
-1771 -719 -2356 -1465 -143 -183 -324 -465 -414 -645 -18 -36 -33 -66 -35
-68 -1 -1 -83 26 -181 62 -1081 387 -2373 783 -3380 1035 -899 225 -1735 379
-2199 406 -60 3 -157 10 -215 15 -169 13 -493 2 -600 -20 -25 -5 -56 -12 -70
-14 -116 -22 -230 -74 -289 -133 -18 -18 -30 -33 -26 -33 3 0 -1 -7 -9 -16
-39 -39 -15 -176 44 -251 11 -14 17 -30 13 -37 -3 -6 -3 -8 2 -4 4 4 42 -25
85 -65 149 -139 339 -261 648 -414 106 -52 191 -97 188 -100 -8 -8 -356 167
-477 240 -134 80 -253 165 -336 241 -35 32 -66 56 -69 53 -8 -7 155 -148 251
-217 262 -188 724 -423 1254 -637 1190 -481 3016 -1003 4900 -1399 l83 -18 -6
-40 c-3 -23 -10 -132 -17 -242 -39 -677 110 -1386 421 -2006 173 -344 322
-564 618 -909 l34 -39 -68 -83 c-152 -185 -582 -727 -751 -947 -1088 -1419
-1914 -2664 -2392 -3609 -72 -143 -131 -265 -131 -272 0 -6 -11 -35 -24 -63
-30 -64 -59 -129 -61 -136 -1 -3 -6 -16 -13 -30 -23 -53 -113 -304 -132 -370
-93 -321 -92 -528 2 -635 22 -25 43 -44 45 -41 3 2 20 -2 38 -10 19 -8 50 -14
69 -14 30 0 115 23 170 45 14 6 17 5 12 -3 -5 -8 -2 -10 9 -6 9 4 14 9 11 11
-3 3 41 33 97 67 181 108 328 228 566 461 751 733 1782 2200 2809 3996 817
1428 1513 2871 1765 3659 22 69 43 129 47 133 4 4 15 -4 25 -19 17 -27 17 -30
-10 -113 -270 -844 -1110 -2533 -2008 -4040 -1280 -2149 -2458 -3658 -3191
-4088 -108 -63 -105 -71 3 -12 608 333 1583 1423 2722 3044 444 631 928 1367
1329 2020 68 110 128 206 135 213 9 10 40 -1 156 -57 383 -185 772 -300 1219
-362 195 -27 649 -37 851 -20 514 45 965 168 1434 390 70 34 129 60 131 59 1
-2 76 -123 167 -270 957 -1543 1960 -2949 2759 -3865 422 -484 837 -878 1123
-1066 84 -55 245 -143 245 -133 0 2 -35 23 -77 46 -97 52 -240 154 -358 255
-89 76 -307 285 -355 341 -37 43 0 10 145 -132 236 -229 439 -387 607 -473
178 -91 278 -104 360 -44 104 75 128 241 74 503 -22 108 -105 370 -151 475
-28 66 -44 104 -84 200 -157 376 -507 1006 -911 1640 -600 940 -1577 2274
-2372 3237 -48 59 -88 112 -88 118 0 6 35 51 79 100 283 321 543 748 704 1155
183 464 271 895 284 1391 5 178 -7 498 -20 578 -3 12 14 16 318 82 794 170
1720 401 2470 615 1722 492 2931 980 3510 1418 83 63 206 182 199 193 -4 5 5
22 19 36 13 15 37 47 53 72 25 39 29 55 28 117 0 69 -1 74 -40 120 -47 55
-152 116 -229 133 -146 33 -189 40 -285 47 -183 14 -365 10 -695 -13 -142 -10
-484 -54 -725 -95 -1090 -182 -2579 -581 -4170 -1118 -281 -94 -772 -265 -822
-286 -13 -5 -24 9 -54 62 -150 274 -255 439 -402 628 -595 765 -1438 1291
-2378 1484 l-139 29 2 48 c2 27 7 119 13 204 9 140 21 353 35 625 12 228 25
596 36 1005 13 480 7 1715 -10 2065 -26 526 -61 982 -102 1315 -24 202 -78
561 -86 574 -4 5 -14 53 -24 105 -41 216 -148 602 -179 646 -4 6 -19 43 -34
82 -15 40 -31 75 -36 78 -4 3 -22 29 -38 58 -30 52 -109 141 -147 165 -55 34
-101 42 -162 30z m10517 -8271 c-74 -69 -190 -156 -314 -234 -112 -71 -522
-280 -531 -272 -3 3 79 47 182 98 297 147 478 259 633 395 90 78 107 86 30 13z
m-11086 -383 c3 -8 2 -12 -4 -9 -6 3 -10 10 -10 16 0 14 7 11 14 -7z m-8964
-134 c8 -5 11 -10 5 -10 -5 0 -17 5 -25 10 -8 5 -10 10 -5 10 6 0 17 -5 25
-10z m19185 0 c-3 -5 -12 -10 -18 -10 -7 0 -6 4 3 10 19 12 23 12 15 0z m-94
-41 c-35 -16 -66 -27 -69 -24 -3 2 6 9 19 14 13 5 40 16 59 24 64 28 56 16 -9
-14z m-18995 0 c27 -11 59 -25 72 -30 12 -5 32 -13 45 -19 199 -84 734 -269
1117 -385 2100 -635 5377 -1185 7066 -1185 140 0 254 -3 254 -8 0 -4 -8 -18
-17 -31 l-16 -24 -306 6 c-1914 41 -5342 666 -7346 1339 -336 113 -812 293
-902 342 -40 22 -24 19 33 -5z m8911 -11 c-3 -8 -6 -5 -6 6 -1 11 2 17 5 13 3
-3 4 -12 1 -19z m10003 -22 c0 -14 -563 -223 -870 -324 -1860 -611 -4838
-1178 -6830 -1302 -219 -14 -720 -25 -751 -17 -28 7 -59 57 -36 57 6 1 120 0
252 0 1462 -3 4364 450 6415 1002 612 164 1146 333 1605 508 124 47 153 59
175 71 16 8 40 12 40 5z m-9987 -21 c-3 -9 -8 -14 -10 -11 -3 3 -2 9 2 15 9
16 15 13 8 -4z m1132 5 c3 -5 1 -10 -4 -10 -6 0 -11 5 -11 10 0 6 2 10 4 10 3
0 8 -4 11 -10z m-1118 -45 c0 -8 -4 -12 -9 -9 -5 3 -6 10 -3 15 9 13 12 11 12
-6z m17 -81 c3 -8 2 -12 -4 -9 -6 3 -10 10 -10 16 0 14 7 11 14 -7z m1054 -79
c-3 -3 -9 2 -12 12 -6 14 -5 15 5 6 7 -7 10 -15 7 -18z m-1017 -42 c13 -16 12
-17 -3 -4 -17 13 -22 21 -14 21 2 0 10 -8 17 -17z m999 -39 c0 -8 -19 -13 -24
-6 -3 5 1 9 9 9 8 0 15 -2 15 -3z m-964 -96 c0 -15 -4 -24 -9 -21 -5 3 -6 16
-3 28 3 13 2 27 -4 30 -5 3 -10 12 -10 18 1 24 25 -29 26 -55z m919 -26 c0
-16 -5 -29 -12 -29 -8 0 -9 6 -4 16 5 9 6 22 4 29 -3 6 -1 12 4 12 5 0 9 -13
8 -28z m1275 24 c0 -2 -8 -10 -17 -17 -16 -13 -17 -12 -4 4 13 16 21 21 21 13z
m-2176 -44 c3 -5 -1 -9 -9 -9 -8 0 -12 4 -9 9 3 4 7 8 9 8 2 0 6 -4 9 -8z
m890 -52 c-6 -6 -10 -3 -10 10 0 13 4 16 10 10 7 -7 7 -13 0 -20z m-890 4 c3
-8 2 -12 -4 -9 -6 3 -10 10 -10 16 0 14 7 11 14 -7z m2056 -27 c0 -2 -13 -16
-30 -32 -16 -16 -30 -26 -30 -22 0 3 12 18 27 32 27 24 33 28 33 22z m-1185
-34 c-2 -39 -15 -73 -26 -73 -14 0 -11 20 6 36 17 17 21 39 5 29 -14 -9 -13 8
2 23 16 16 15 16 13 -15z m1115 -27 c0 -2 -8 -10 -17 -17 -16 -13 -17 -12 -4
4 13 16 21 21 21 13z m-3035 -46 c10 -11 14 -20 9 -20 -5 0 -15 9 -22 20 -7
11 -11 20 -9 20 2 0 12 -9 22 -20z m2995 6 c0 -2 -8 -10 -17 -17 -16 -13 -17
-12 -4 4 13 16 21 21 21 13z m-1100 -31 c-6 -8 -9 -19 -5 -25 3 -5 1 -10 -4
-10 -12 0 -15 33 -4 43 13 14 25 7 13 -8z m-1847 -23 c14 -15 15 -19 2 -19 -8
0 -12 4 -9 8 2 4 -4 12 -13 18 -10 6 -13 11 -7 11 6 0 18 -8 27 -18z m2907 4
c0 -2 -7 -9 -15 -16 -13 -11 -14 -10 -9 4 5 14 24 23 24 12z m-43 -39 c0 -8
-6 -14 -14 -14 -9 0 -10 4 -2 14 6 7 12 13 14 13 1 0 2 -6 2 -13z m-1033 -12
c-4 -8 -8 -15 -10 -15 -2 0 -4 7 -4 15 0 8 4 15 10 15 5 0 7 -7 4 -15z m-1729
-66 c-4 -5 -1 -9 4 -9 6 0 11 -5 11 -11 0 -8 -5 -7 -15 1 -9 7 -13 15 -10 18
2 3 -3 11 -13 19 -15 13 -15 13 6 3 12 -6 20 -15 17 -21z m1725 27 c0 -3 -4
-8 -10 -11 -5 -3 -10 -1 -10 4 0 6 5 11 10 11 6 0 10 -2 10 -4z m944 -41 c-4
-8 -11 -15 -16 -15 -6 0 -5 6 2 15 7 8 14 15 16 15 2 0 1 -7 -2 -15z m-51 -67
c-21 -22 -49 -45 -63 -51 -14 -7 -25 -17 -25 -24 0 -10 -42 -53 -51 -53 -2 0
0 10 5 23 6 14 15 21 27 19 11 -2 16 0 11 4 -10 10 22 44 42 44 14 0 14 2 1
11 -12 8 -11 9 5 7 13 -2 19 2 17 12 -2 8 0 12 4 7 9 -8 46 22 39 33 -2 4 3 7
11 7 9 0 1 -15 -23 -39z m-926 -10 c-3 -7 -5 -2 -5 12 0 14 2 19 5 13 2 -7 2
-19 0 -25z m-1543 -59 c-7 -12 -30 6 -46 34 -10 19 -8 18 21 -2 17 -13 29 -27
25 -32z m1523 -21 c-3 -8 -6 -5 -6 6 -1 11 2 17 5 13 3 -3 4 -12 1 -19z
m-1461 -33 c3 -17 -12 -20 -21 -5 -7 12 4 34 13 25 3 -3 7 -12 8 -20z m36 -33
c-7 -2 -9 -9 -6 -14 4 -7 2 -8 -4 -4 -6 4 -9 13 -6 21 4 8 11 12 17 8 8 -5 7
-8 -1 -11z m2199 -10 c-5 -10 -18 -25 -27 -33 -12 -9 -15 -9 -10 -1 4 6 2 12
-4 12 -7 0 -6 5 2 14 7 8 16 12 20 10 4 -2 9 0 13 6 11 18 16 11 6 -8z m-2156
-52 c10 -11 16 -20 13 -20 -3 0 -13 9 -23 20 -10 11 -16 20 -13 20 3 0 13 -9
23 -20z m2099 5 c-4 -9 -16 -21 -28 -27 -19 -10 -18 -8 4 15 29 31 31 32 24
12z m-2040 -47 c-3 -5 -12 -4 -20 3 -8 6 -12 14 -9 17 3 3 -1 12 -7 21 -7 9 0
5 14 -8 15 -13 25 -28 22 -33z m1998 -2 c7 4 8 2 4 -4 -12 -19 -36 -15 -29 5
4 11 8 13 11 5 2 -7 9 -9 14 -6z m-33 -29 c8 -11 4 -19 -17 -38 -15 -13 -24
-20 -20 -15 4 5 2 16 -5 25 -10 14 -10 14 4 3 22 -16 46 7 27 26 -7 7 -9 12
-6 12 3 0 11 -6 17 -13z m-1913 -23 c-3 -7 0 -11 7 -8 7 2 18 -6 26 -18 9 -15
9 -19 1 -11 -7 6 -18 9 -24 7 -7 -3 -17 6 -23 19 -9 19 -8 24 3 24 8 0 13 -6
10 -13z m1864 -29 c0 -9 -9 -15 -22 -15 -21 0 -21 0 -2 15 24 18 24 18 24 0z
m-1794 -40 c-2 -14 -16 -22 -16 -10 0 3 0 12 0 21 0 8 4 13 9 10 5 -4 8 -13 7
-21z m1776 3 c-15 -15 -56 -22 -47 -7 4 6 13 8 21 5 7 -3 16 -1 19 4 4 6 9 10
13 10 3 0 1 -5 -6 -12z m-1742 -34 c6 -14 14 -23 19 -20 5 3 14 -1 21 -9 7 -8
9 -15 5 -15 -5 0 0 -9 10 -20 10 -11 13 -20 7 -20 -7 0 -12 5 -12 11 0 5 -6 7
-12 3 -7 -4 -10 -3 -5 1 10 12 -23 46 -37 38 -6 -3 -8 -3 -4 2 4 4 0 14 -10
21 -11 9 -13 13 -4 14 7 0 10 5 7 10 -3 6 -4 10 0 10 3 0 10 -12 15 -26z
m1668 -40 c-18 -18 -37 -34 -42 -34 -5 0 3 11 17 24 30 28 24 45 -7 19 -20
-17 -20 -17 -6 1 16 20 51 36 63 29 5 -3 -6 -20 -25 -39z m-61 -21 c-4 -3 -1
-13 6 -22 11 -14 10 -14 -5 -2 -16 12 -16 31 -1 31 4 0 3 -3 0 -7z m-657 -168
c68 -4 229 -73 212 -89 -4 -4 1 -6 11 -4 19 3 145 -99 146 -120 1 -7 8 -15 17
-19 8 -3 13 -11 10 -18 -2 -7 6 -23 20 -36 13 -12 24 -28 24 -36 0 -7 4 -13 8
-13 13 0 40 -65 57 -137 17 -72 19 -289 3 -299 -4 -3 -8 -14 -8 -24 0 -49
-120 -260 -148 -260 -7 0 -11 -4 -8 -9 3 -5 -4 -16 -17 -24 -12 -8 -33 -24
-46 -36 -13 -11 -29 -18 -35 -14 -6 3 -8 3 -4 -2 9 -9 -54 -55 -74 -55 -8 0
-18 -4 -24 -9 -5 -5 -40 -19 -79 -32 -56 -18 -90 -22 -170 -21 -131 2 -250 29
-270 62 -3 6 -17 10 -29 10 -13 0 -35 11 -50 25 -15 14 -30 25 -33 25 -10 0
-92 64 -93 72 0 4 -11 18 -25 32 -14 14 -25 32 -25 41 0 8 -4 15 -9 15 -14 0
-82 149 -92 204 -20 102 -21 116 -11 116 7 0 10 34 9 94 -1 65 2 99 11 107 6
7 12 24 12 39 1 14 9 39 18 56 39 72 55 99 61 104 4 3 14 18 24 33 10 15 22
25 27 22 6 -4 10 -1 10 4 0 16 51 71 66 71 7 0 17 6 21 14 9 15 73 50 73 39 0
-4 6 1 13 10 12 17 151 72 141 56 -3 -5 0 -9 5 -9 6 0 11 4 11 9 0 5 16 8 35
7 19 -2 35 1 35 7 0 6 24 7 68 2 37 -4 83 -8 102 -10z m-1195 -911 c-7 -8 -21
-11 -30 -8 -14 6 -14 8 2 19 24 18 48 8 28 -11z m2195 12 c0 4 9 -1 20 -11 27
-24 14 -40 -16 -20 -14 9 -30 13 -36 9 -7 -4 -8 -3 -4 4 4 7 2 12 -4 12 -6 0
-8 5 -5 10 4 7 13 7 26 0 10 -6 19 -8 19 -4z m-2250 -40 c-7 -7 -13 -7 -20 0
-6 6 -3 10 10 10 13 0 16 -4 10 -10z m2415 -27 c-4 -5 -11 -9 -17 -9 -6 0 -8
3 -5 7 4 3 1 13 -6 21 -10 13 -9 14 11 3 12 -7 20 -16 17 -22z m-2535 7 c0 -9
-7 -13 -20 -11 -11 2 -20 -1 -20 -7 0 -7 -6 -6 -15 2 -14 11 -19 7 -16 -12 2
-12 -77 -9 -85 3 -4 8 0 9 15 4 13 -4 21 -2 21 6 0 9 3 9 14 0 11 -9 15 -9 18
0 2 6 19 13 38 15 18 2 36 6 38 9 9 8 12 6 12 -9z m2557 -8 c-3 -8 -6 -5 -6 6
-1 11 2 17 5 13 3 -3 4 -12 1 -19z m98 -10 c5 4 5 1 1 -6 -6 -10 -11 -10 -22
-1 -8 6 -14 14 -14 16 0 3 6 0 13 -6 8 -6 18 -7 22 -3z m16 -31 c-10 -9 -11
-8 -5 6 3 10 9 15 12 12 3 -3 0 -11 -7 -18z m60 9 c7 4 9 3 5 -4 -9 -15 -43
-11 -43 5 0 9 4 10 13 2 7 -6 19 -7 25 -3z m-2911 -2 c0 -8 -19 -13 -24 -6 -3
5 1 9 9 9 8 0 15 -2 15 -3z m25 -4 c3 -5 1 -10 -4 -10 -6 0 -11 5 -11 10 0 6
2 10 4 10 3 0 8 -4 11 -10z m2964 -25 c6 3 11 0 12 -7 0 -10 2 -10 6 0 5 13
23 7 23 -8 0 -16 -55 1 -75 23 l-20 21 22 -18 c12 -10 27 -15 32 -11z m-3079
5 c0 -5 -2 -10 -4 -10 -3 0 -8 5 -11 10 -3 6 -1 10 4 10 6 0 11 -4 11 -10z
m3150 -26 c0 -8 -4 -12 -10 -9 -5 3 -10 10 -10 16 0 5 5 9 10 9 6 0 10 -7 10
-16z m-3240 -4 c0 -5 -5 -10 -11 -10 -5 0 -7 5 -4 10 3 6 8 10 11 10 2 0 4 -4
4 -10z m3305 -11 c11 -16 1 -19 -13 -3 -7 8 -8 14 -3 14 5 0 13 -5 16 -11z
m-3399 -11 c5 -7 3 -8 -6 -3 -7 4 -16 2 -21 -6 -4 -7 -18 -14 -31 -14 -13 -1
-29 -5 -36 -9 -7 -4 -12 -2 -12 4 0 12 13 18 47 23 12 2 26 6 29 10 11 10 22
9 30 -5z m3455 -5 c11 -15 11 -16 -1 -5 -18 15 -34 16 -24 0 4 -7 3 -8 -5 -4
-12 8 -6 26 8 26 5 0 15 -8 22 -17z m69 -23 c0 -5 -2 -10 -4 -10 -3 0 -8 5
-11 10 -3 6 -1 10 4 10 6 0 11 -4 11 -10z m46 -5 c17 6 18 6 1 -5 -19 -12 -37
-6 -37 13 0 9 3 8 8 -1 5 -7 17 -10 28 -7z m-3741 -15 c3 -6 -1 -7 -9 -4 -18
7 -21 14 -7 14 6 0 13 -4 16 -10z m3840 -20 c3 -6 -1 -7 -9 -4 -18 7 -21 14
-7 14 6 0 13 -4 16 -10z m36 -7 c13 -16 12 -17 -3 -4 -17 13 -22 21 -14 21 2
0 10 -8 17 -17z m-3996 -3 c3 -6 -1 -7 -9 -4 -18 7 -21 14 -7 14 6 0 13 -4 16
-10z m4099 -18 c2 -4 -4 -8 -14 -8 -10 0 -16 4 -14 8 3 4 9 8 14 8 5 0 11 -4
14 -8z m-4210 -10 c3 -5 -1 -9 -9 -9 -8 0 -12 4 -9 9 3 4 7 8 9 8 2 0 6 -4 9
-8z m-40 -10 c3 -5 -1 -9 -9 -9 -8 0 -12 4 -9 9 3 4 7 8 9 8 2 0 6 -4 9 -8z
m3159 -342 c303 -847 998 -2257 1770 -3595 585 -1013 1176 -1931 1709 -2652
54 -73 95 -133 91 -133 -4 0 0 -6 9 -12 21 -17 198 -245 198 -255 0 -5 9 -14
20 -21 11 -7 20 -19 20 -27 0 -8 4 -15 9 -15 5 0 24 -20 42 -45 19 -25 44 -57
57 -71 12 -14 22 -30 22 -35 0 -6 -16 9 -36 33 -19 23 -49 59 -65 78 -68 79
-336 428 -466 605 -1313 1793 -2873 4582 -3448 6165 -85 235 -87 241 -62 280
l20 32 33 -103 c17 -57 52 -160 77 -229z m-3268 310 c-3 -5 -12 -10 -18 -10
-7 0 -6 4 3 10 19 12 23 12 15 0z m1989 -462 c-3 -4 -11 -5 -19 -1 -21 7 -19
12 4 10 11 0 18 -5 15 -9z m574 3 c1 -1 -2 -10 -8 -22 -13 -23 -19 -21 -25 9
-3 18 3 21 33 13z m-595 -61 c-8 -35 -13 -41 -25 -34 -6 4 -5 10 3 15 12 7 12
9 0 9 -10 0 -11 3 -2 13 6 8 8 17 5 20 -3 3 -3 11 1 17 12 19 25 -11 18 -40z
m600 -46 c-7 -20 -10 -18 -15 11 -4 20 -2 23 8 14 7 -6 10 -17 7 -25z m26 -1
c-1 -10 3 -29 7 -42 5 -18 4 -23 -6 -19 -12 4 -15 25 -11 68 2 17 10 11 10 -7z
m-667 -35 c-8 -8 -9 -4 -5 13 4 13 8 18 11 10 2 -7 -1 -18 -6 -23z m18 -30 c0
-4 -7 -8 -15 -8 -8 0 -15 4 -15 8 0 5 7 9 15 9 8 0 15 -4 15 -9z m-19 -43 c5
4 6 -1 2 -10 -5 -13 -7 -14 -14 -3 -7 11 -9 10 -9 -1 0 -8 -2 -12 -5 -9 -3 3
-2 13 2 24 4 11 8 13 11 6 2 -7 8 -10 13 -7z m699 -40 c7 -8 9 -15 6 -15 -4 0
-2 -10 5 -21 8 -15 8 -19 0 -15 -6 4 -11 1 -11 -6 0 -8 -5 -6 -11 5 -6 10 -8
25 -5 33 3 8 1 14 -4 14 -6 0 -10 5 -10 10 0 15 16 12 30 -5z m-720 -34 c0 -4
-6 -8 -14 -8 -8 0 -12 6 -9 14 5 13 23 9 23 -6z m-12 -39 c-14 -3 -16 -8 -8
-22 8 -14 5 -19 -11 -23 -17 -5 -18 -3 -8 9 6 8 9 17 6 21 -11 10 14 34 27 26
7 -5 5 -9 -6 -11z m763 -31 c4 -38 6 -47 12 -61 24 -55 26 -70 11 -70 -8 0
-14 6 -13 13 1 6 1 23 0 37 -1 20 -3 22 -11 10 -7 -12 -9 -11 -9 5 1 23 -10
75 -17 87 -3 4 2 5 10 2 9 -3 17 -14 17 -23z m-771 -42 c0 -5 -4 -7 -10 -4 -5
3 -10 1 -10 -6 0 -7 -3 -10 -6 -6 -8 7 4 27 17 27 5 0 9 -5 9 -11z m-39 -52
c-10 -9 -11 -8 -5 6 3 10 9 15 12 12 3 -3 0 -11 -7 -18z m12 -18 c-6 -6 -9
-17 -7 -24 7 -16 -12 -29 -21 -15 -6 10 21 50 34 50 3 0 0 -5 -6 -11z m841
-71 c-10 -16 -19 -7 -20 18 -2 23 -1 24 11 7 7 -10 11 -21 9 -25z m11 -38 c3
-5 1 -10 -4 -10 -6 0 -11 5 -11 10 0 6 2 10 4 10 3 0 8 -4 11 -10z m-898 -66
c-3 -3 -12 -4 -19 -1 -8 3 -5 6 6 6 11 1 17 -2 13 -5z m925 -38 c7 4 8 2 4 -5
-9 -13 -26 -5 -25 12 0 9 2 8 6 -1 2 -6 10 -9 15 -6z m-949 -48 c-4 -7 -8 -19
-10 -27 -1 -7 -6 -18 -11 -23 -14 -14 -8 28 7 46 16 19 25 21 14 4z m958 -21
c-10 -9 -11 -8 -5 6 3 10 9 15 12 12 3 -3 0 -11 -7 -18z m-995 -102 c1 -8 -2
-13 -7 -9 -5 3 -9 12 -9 21 0 19 13 9 16 -12z m-8 -40 c-3 -3 -9 2 -12 12 -6
14 -5 15 5 6 7 -7 10 -15 7 -18z m1062 -55 c6 -11 8 -20 6 -20 -3 0 -10 9 -16
20 -6 11 -8 20 -6 20 3 0 10 -9 16 -20z m18 -55 c-3 -3 -9 2 -12 12 -6 14 -5
15 5 6 7 -7 10 -15 7 -18z m-1118 -25 c0 -5 -5 -10 -11 -10 -5 0 -7 5 -4 10 3
6 8 10 11 10 2 0 4 -4 4 -10z m1143 -70 c3 -11 2 -18 -3 -15 -4 3 -10 14 -13
25 -3 11 -2 18 3 15 4 -3 10 -14 13 -25z m4407 -5651 c17 -30 6 -34 -14 -4 -9
14 -12 25 -7 25 6 0 15 -9 21 -21z m50 -60 c0 -6 -4 -7 -10 -4 -5 3 -10 11
-10 16 0 6 5 7 10 4 6 -3 10 -11 10 -16z m70 -93 c0 -5 -7 -1 -15 10 -8 10
-14 24 -14 29 0 6 6 1 14 -9 8 -11 15 -24 15 -30z m55 -46 c3 -5 1 -10 -4 -10
-6 0 -11 5 -11 10 0 6 2 10 4 10 3 0 8 -4 11 -10z m93 -111 c19 -30 11 -32
-11 -3 -10 13 -14 24 -10 24 5 0 14 -9 21 -21z"/>
<path d="M12405 12891 c-74 -18 -121 -59 -154 -131 -27 -59 -26 -114 3 -175
29 -63 72 -100 139 -120 139 -41 277 64 277 209 -1 102 -74 195 -172 215 -54
12 -50 12 -93 2z"/>
<path d="M13570 12376 c0 -2 7 -7 16 -10 8 -3 12 -2 9 4 -6 10 -25 14 -25 6z"/>
</g>
</svg>
