<?xml version="1.0" standalone="no"?>
<!DOCTYPE svg PUBLIC "-//W3C//DTD SVG 20010904//EN"
 "http://www.w3.org/TR/2001/REC-SVG-20010904/DTD/svg10.dtd">
<svg version="1.0" xmlns="http://www.w3.org/2000/svg"
 width="2411.000000pt" height="2500.000000pt" viewBox="0 0 2411.000000 2500.000000"
 preserveAspectRatio="xMidYMid meet">

<g transform="translate(0.000000,2500.000000) scale(0.100000,-0.100000)"
fill="#000000" stroke="none">
<path d="M12403 23666 c-24 -5 -43 -13 -43 -17 0 -5 -6 -9 -14 -9 -16 0 -83
-71 -115 -123 -12 -20 -27 -35 -31 -32 -5 3 -12 0 -16 -6 -4 -8 -3 -9 4 -5 18
11 15 1 -17 -62 -84 -168 -181 -513 -226 -807 -3 -22 -8 -52 -11 -67 l-6 -28
545 0 544 0 -9 58 c-17 111 -104 447 -155 602 -14 41 -49 128 -77 190 -43 94
-173 270 -201 270 -4 0 -16 7 -25 15 -24 21 -98 32 -147 21z"/>
<path d="M12136 23383 c-55 -111 -100 -233 -145 -392 -46 -162 -116 -479 -108
-488 12 -11 37 7 37 26 0 35 50 293 81 416 40 162 93 322 140 424 22 46 38 86
36 87 -2 2 -20 -31 -41 -73z"/>
<path d="M11673 16649 c-527 -102 -1070 -331 -1513 -637 -403 -279 -764 -640
-1051 -1052 -113 -162 -296 -488 -281 -500 4 -4 61 -26 127 -49 66 -24 251
-92 411 -152 228 -85 298 -107 330 -105 51 5 53 6 29 16 -18 7 -16 9 13 15 18
4 35 12 38 17 6 9 -13 6 -55 -10 -8 -3 0 11 19 31 18 20 39 37 47 37 7 0 13 5
13 10 0 6 -5 10 -12 10 -7 0 -5 7 5 18 8 9 22 33 30 52 11 25 16 30 17 15 1
-15 4 -13 15 12 7 17 23 41 34 52 12 12 20 24 20 29 -1 4 -1 14 0 22 1 13 2
13 12 0 8 -11 9 -8 4 13 -5 25 -3 28 14 22 16 -5 22 -1 27 18 6 28 36 41 53
24 8 -8 11 -8 11 1 0 7 -4 12 -10 12 -5 0 -15 10 -21 23 -11 20 -11 21 4 8 15
-11 17 -11 17 2 0 18 32 77 42 77 3 0 9 -8 11 -17 4 -17 5 -17 6 0 1 12 5 16
14 11 7 -5 6 -1 -3 10 -12 16 -12 19 2 27 10 5 24 16 32 25 9 8 20 13 25 9 5
-3 12 -1 16 5 3 5 -1 10 -9 10 -9 0 -16 5 -16 10 0 6 4 10 9 10 5 0 22 14 38
30 15 17 34 30 40 30 7 0 13 7 13 15 0 21 48 65 70 65 14 0 20 7 20 21 0 11
10 29 23 40 27 22 37 24 37 5 0 -8 7 -16 15 -20 12 -4 13 -2 6 12 -11 21 2 57
23 65 9 4 16 16 16 27 0 12 4 18 10 15 10 -6 113 63 162 109 16 15 33 23 42
20 11 -4 16 0 16 10 0 9 8 16 20 16 13 0 20 7 20 19 0 13 9 20 30 25 17 3 30
10 30 16 0 14 25 40 38 40 5 0 15 7 23 16 7 8 21 13 31 10 14 -3 22 3 28 20 6
14 18 24 28 24 11 0 31 9 45 20 27 22 52 26 62 10 8 -13 25 -13 25 1 0 24 31
41 62 35 26 -5 29 -4 18 9 -7 8 -16 12 -21 9 -5 -3 -6 1 -3 9 7 20 75 27 93
10 7 -8 16 -11 20 -7 3 4 0 9 -6 11 -18 6 -16 43 1 43 8 0 16 -6 19 -12 3 -10
7 -10 20 0 35 30 93 52 134 52 24 0 43 3 43 8 0 17 79 44 116 40 22 -3 31 -3
21 -1 -30 7 -12 28 21 26 16 -2 58 6 92 17 34 11 64 19 68 19 4 -1 25 -1 47 0
27 1 35 4 26 10 -10 6 -10 10 -1 13 9 3 6 75 -14 303 -14 165 -31 374 -37 465
-6 91 -12 165 -13 166 0 1 -42 -7 -93 -17z m84 -925 c-3 -3 -12 -4 -19 -1 -8
3 -5 6 6 6 11 1 17 -2 13 -5z"/>
<path d="M13121 16468 c-7 -106 -23 -319 -36 -473 -17 -202 -21 -283 -13 -290
8 -7 9 -5 6 5 -3 8 -1 24 3 35 l9 20 -1 -20 c-2 -43 1 -51 14 -29 9 16 18 19
37 13 16 -4 19 -7 8 -8 -10 -1 -18 -4 -18 -9 0 -4 30 -8 66 -9 77 -1 140 -25
148 -57 4 -13 9 -17 13 -10 11 15 72 23 103 13 22 -6 20 -7 -13 -8 -56 -1 -37
-18 30 -25 73 -9 123 -26 123 -43 0 -8 12 -13 30 -13 19 0 34 -7 42 -20 9 -14
24 -20 51 -20 25 0 43 -7 54 -20 10 -11 28 -20 40 -20 13 0 23 -6 23 -13 0 -7
21 -19 48 -27 73 -21 119 -44 115 -57 -3 -7 12 -17 34 -23 21 -6 49 -17 63
-26 l25 -15 -27 4 c-15 2 -25 1 -23 -4 3 -4 -1 -10 -7 -12 -7 -3 3 -3 22 0 30
4 44 -1 83 -31 26 -20 54 -36 62 -36 8 0 12 -6 9 -14 -4 -11 6 -18 35 -26 44
-12 51 -23 24 -39 -10 -6 -13 -11 -6 -11 6 0 15 5 18 10 10 16 17 12 85 -50
36 -33 72 -60 80 -60 9 0 23 -9 33 -20 9 -11 24 -20 32 -20 20 0 19 -7 -5 -32
-24 -26 -20 -34 9 -19 17 10 24 7 43 -15 50 -60 78 -84 102 -90 17 -4 26 -13
26 -25 0 -11 6 -22 14 -25 7 -3 22 -21 32 -40 20 -37 34 -44 34 -16 1 12 5 9
16 -11 8 -15 12 -32 9 -37 -7 -11 29 -51 60 -68 11 -6 14 -12 8 -12 -7 0 -13
-5 -13 -11 0 -6 6 -9 14 -6 10 4 12 0 9 -14 -4 -16 -1 -20 12 -17 13 2 22 -7
31 -32 11 -31 13 -32 14 -10 1 23 3 22 14 -8 6 -19 19 -38 29 -43 9 -6 17 -17
17 -24 0 -8 5 -15 10 -15 6 0 10 -9 10 -19 0 -11 4 -21 8 -23 4 -2 20 -24 35
-50 15 -26 33 -53 41 -60 25 -25 45 -75 39 -96 -3 -14 -1 -22 7 -22 7 0 10 7
6 15 -7 18 -6 18 34 1 23 -9 28 -15 17 -19 -9 -3 -18 -3 -20 1 -2 4 -2 1 -1
-5 2 -7 -5 -13 -16 -13 -11 0 -20 -5 -20 -10 0 -14 31 -9 48 8 8 7 17 10 22 7
4 -3 93 27 196 66 104 39 275 102 379 140 105 38 209 76 231 85 l42 15 -40 77
c-147 281 -356 585 -562 817 -131 147 -150 167 -281 288 -536 495 -1181 832
-1883 986 -210 46 -186 65 -201 -161z"/>
<path d="M2405 15978 c-273 -19 -454 -81 -534 -183 -37 -49 -41 -59 -41 -112
0 -40 8 -74 24 -109 50 -107 244 -278 473 -415 140 -83 475 -251 484 -241 4 4
46 147 94 317 48 171 113 402 145 515 32 113 58 205 57 206 -1 1 -63 7 -137
13 -169 14 -433 18 -565 9z"/>
<path d="M22150 15979 c-230 -6 -338 -14 -349 -25 -4 -4 284 -1032 292 -1040
6 -6 339 161 444 222 123 72 241 153 316 217 32 27 60 47 63 45 6 -7 -110
-100 -211 -170 -116 -80 -234 -147 -438 -249 -138 -70 -177 -93 -168 -102 23
-22 402 187 623 343 104 73 261 217 252 231 -3 5 10 28 30 50 53 62 80 137 72
202 -19 148 -234 253 -555 273 -53 3 -100 6 -106 7 -5 1 -125 -1 -265 -4z
m820 -532 c0 -2 -12 -14 -27 -28 l-28 -24 24 28 c23 25 31 32 31 24z"/>
<path d="M13046 15601 c-3 -20 -17 -137 -31 -261 -32 -286 -78 -631 -110 -828
-28 -171 -29 -182 -15 -182 5 0 7 7 4 15 -3 8 -2 20 2 27 5 7 9 19 9 27 0 17
25 28 25 11 0 -6 -5 -8 -11 -4 -8 4 -9 0 -4 -15 3 -12 2 -21 -4 -21 -5 0 -9
-14 -9 -31 1 -21 -6 -37 -18 -46 -16 -12 -17 -16 -6 -34 11 -17 10 -27 -6 -60
-11 -21 -15 -36 -10 -32 11 6 0 -38 -11 -47 -3 -3 -7 -23 -9 -45 -1 -21 -7
-42 -13 -45 -5 -4 -9 -11 -7 -16 3 -12 -62 -287 -71 -295 -3 -4 -46 1 -96 12
-117 24 -290 24 -411 1 l-91 -18 -47 193 c-26 106 -49 206 -51 221 -2 15 -10
47 -19 72 -9 25 -16 59 -16 77 0 17 -6 34 -12 36 -9 4 -9 8 -3 14 17 13 15 38
-21 273 -36 240 -95 706 -115 907 l-12 123 -41 -5 c-23 -3 -80 -16 -128 -29
-49 -14 -88 -22 -88 -19 0 3 -6 1 -12 -4 -7 -6 -56 -24 -109 -42 -53 -17 -159
-58 -235 -92 -76 -34 -147 -62 -156 -62 -9 -1 -15 -4 -12 -8 2 -4 -27 -22 -66
-42 -38 -19 -81 -44 -97 -54 -34 -24 -65 -37 -78 -34 -5 2 -7 -1 -3 -5 10 -9
-91 -76 -103 -68 -5 3 -8 1 -7 -4 2 -6 -37 -40 -87 -77 -49 -37 -107 -83 -127
-103 -21 -20 -38 -34 -38 -31 0 3 -24 -19 -54 -48 -34 -34 -59 -52 -67 -47 -7
4 -10 3 -6 -3 6 -10 -15 -36 -24 -30 -2 1 -3 0 -2 -2 2 -3 -79 -95 -176 -200
-13 -14 -28 -25 -33 -23 -5 1 -7 -2 -3 -8 3 -5 -9 -29 -27 -52 -45 -58 -55
-68 -62 -63 -3 3 -4 2 -1 -1 8 -12 -16 -45 -27 -38 -7 4 -8 3 -4 -4 8 -14 -19
-57 -37 -57 -6 -1 -11 -6 -10 -13 2 -6 -17 -43 -41 -81 -25 -38 -54 -88 -66
-111 -14 -28 -25 -39 -29 -31 -4 7 -8 -1 -8 -17 0 -34 -27 -20 307 -157 367
-151 692 -297 980 -441 266 -134 470 -244 470 -255 0 -4 -20 -42 -44 -85 -57
-101 -104 -240 -119 -357 l-13 -92 -109 3 c-354 10 -952 79 -1600 186 -159 27
-211 32 -217 23 -5 -7 -7 -147 -4 -312 4 -314 14 -410 67 -637 11 -48 17 -93
13 -99 -4 -7 -3 -9 2 -6 7 4 49 -119 59 -173 1 -3 9 -22 18 -44 9 -21 17 -41
17 -43 0 -14 79 -199 121 -285 26 -54 45 -98 41 -98 -4 0 -2 -4 4 -8 7 -4 35
-47 64 -97 72 -122 177 -275 247 -359 l57 -69 35 39 c20 22 113 125 206 229
365 406 756 802 1001 1012 69 59 130 108 134 108 5 0 31 -31 58 -70 62 -88
175 -195 272 -259 41 -27 77 -51 79 -53 6 -4 -71 -194 -144 -358 -146 -326
-336 -701 -589 -1160 -64 -115 -116 -213 -116 -217 0 -4 31 -22 70 -41 38 -19
67 -37 62 -42 -4 -5 -2 -5 5 -1 7 3 54 -11 105 -32 51 -21 121 -47 155 -57 34
-10 59 -23 56 -28 -3 -6 -1 -7 4 -4 6 4 62 -6 124 -23 431 -111 855 -131 1287
-59 142 23 324 68 429 105 40 14 79 22 85 18 7 -4 10 -4 6 1 -5 5 38 25 93 46
56 21 134 55 175 75 67 34 72 39 62 58 -6 12 -76 140 -156 286 -180 327 -445
853 -536 1060 -102 232 -158 374 -148 378 5 1 44 26 87 55 98 64 208 172 265
257 24 36 45 67 46 69 6 6 132 -99 274 -230 247 -226 627 -619 975 -1011 150
-168 127 -165 229 -33 63 81 74 97 137 192 19 29 38 51 42 48 4 -3 5 -2 2 1
-4 7 56 124 102 196 12 21 23 42 23 48 0 6 4 8 10 5 6 -3 7 1 4 9 -3 9 -1 16
5 16 6 0 10 3 9 8 -4 13 25 81 33 77 4 -3 6 1 5 8 -2 19 66 187 76 187 5 0 7
4 4 8 -3 5 13 64 35 133 96 304 133 554 133 916 1 144 -2 264 -5 268 -4 3 -87
-8 -185 -24 -302 -51 -701 -110 -889 -131 -49 -5 -128 -14 -175 -20 -205 -23
-478 -42 -635 -44 l-40 -1 -8 50 c-28 175 -73 308 -146 432 l-31 52 102 61
c254 150 824 417 1368 641 156 64 286 122 288 128 2 6 -27 61 -64 122 -37 62
-67 118 -67 125 0 7 -4 11 -8 8 -4 -2 -17 11 -29 31 -11 19 -39 56 -61 82 -21
26 -39 51 -39 56 0 4 -11 20 -24 34 -14 15 -23 30 -20 35 3 5 2 7 -3 6 -4 -2
-35 26 -67 62 -117 130 -133 146 -200 208 -60 56 -66 65 -54 80 12 15 11 16
-4 4 -18 -14 -43 -7 -32 9 3 5 1 8 -4 7 -14 -4 -133 92 -127 103 4 5 0 7 -7 4
-7 -2 -29 10 -48 27 -19 17 -29 27 -21 23 9 -6 12 -4 7 4 -4 6 -11 9 -17 6 -9
-6 -131 71 -137 87 -2 4 -7 8 -12 8 -12 0 -120 67 -115 72 2 2 -4 4 -14 5 -10
1 -40 15 -67 31 -27 17 -68 38 -92 47 -37 15 -41 19 -30 34 11 14 11 14 -3 3
-14 -11 -32 -6 -110 28 -52 23 -116 49 -144 58 -27 9 -53 21 -57 27 -4 5 -8 7
-8 3 0 -3 -28 3 -62 13 -35 11 -120 35 -190 53 l-127 34 -5 -37z m-1202 -627
c3 -8 2 -12 -4 -9 -6 3 -10 10 -10 16 0 14 7 11 14 -7z m1227 -15 c-5 -13 -10
-19 -10 -12 -1 15 10 45 15 40 3 -2 0 -15 -5 -28z m-27 -104 c-4 -8 -8 -15
-10 -15 -2 0 -4 7 -4 15 0 8 4 15 10 15 5 0 7 -7 4 -15z m-4 -35 c0 -5 -5 -10
-11 -10 -5 0 -7 5 -4 10 3 6 8 10 11 10 2 0 4 -4 4 -10z m-1144 -33 c1 -7 5
-19 9 -28 3 -10 2 -19 -3 -23 -5 -3 -9 0 -9 7 0 7 -3 25 -6 41 -4 16 -3 26 0
22 4 -4 8 -12 9 -19z m1129 3 c3 -5 1 -10 -4 -10 -6 0 -11 5 -11 10 0 6 2 10
4 10 3 0 8 -4 11 -10z m-5 -44 c0 -3 -4 -8 -10 -11 -5 -3 -10 -1 -10 4 0 6 5
11 10 11 6 0 10 -2 10 -4z m-1100 -36 c0 -5 -4 -10 -10 -10 -5 0 -10 5 -10 10
0 6 5 10 10 10 6 0 10 -4 10 -10z m1083 -12 c-4 -7 -8 -16 -8 -20 0 -3 -3 -9
-7 -13 -3 -4 -5 1 -3 12 2 10 4 21 4 26 1 4 6 7 12 7 6 0 7 -5 2 -12z m-1069
-57 c-6 -6 -11 1 -18 29 l-7 25 15 -25 c8 -14 12 -27 10 -29z m1048 -24 c-7
-8 -9 -16 -6 -19 3 -3 1 -9 -5 -12 -6 -4 -8 2 -5 16 3 13 6 29 6 36 1 8 5 9
11 3 7 -7 6 -15 -1 -24z m-1033 -21 c-3 -3 -11 5 -18 17 -13 21 -12 21 5 5 10
-10 16 -20 13 -22z m8 -43 c1 -19 -1 -22 -8 -12 -11 17 -12 39 -1 39 4 0 8
-12 9 -27z m1004 -17 c-7 -8 -10 -19 -7 -24 3 -5 -1 -9 -9 -9 -12 0 -11 5 1
30 9 16 18 26 21 23 3 -3 0 -12 -6 -20z m1359 0 c0 -2 -8 -10 -17 -17 -16 -13
-17 -12 -4 4 13 16 21 21 21 13z m-2322 -115 c0 -3 1 -8 2 -11 6 -16 5 -52 -2
-56 -4 -3 -9 1 -9 8 -1 7 -3 24 -6 38 -2 14 -4 35 -3 48 0 12 -4 22 -9 22 -5
0 -7 10 -3 22 4 18 8 14 18 -22 7 -24 13 -46 12 -49z m944 50 c8 12 9 12 6 0
-6 -22 -28 -25 -27 -4 0 12 2 14 6 4 5 -11 7 -11 15 0z m1258 -54 c0 -2 -17
-19 -37 -38 l-38 -34 34 38 c33 34 41 42 41 34z m-3365 -107 c26 -28 15 -31
-12 -3 -12 13 -19 23 -14 23 4 0 16 -9 26 -20z m3255 -3 c0 -2 -19 -21 -42
-42 l-43 -40 40 43 c36 39 45 47 45 39z m-3209 -54 c13 -16 12 -17 -3 -4 -17
13 -22 21 -14 21 2 0 10 -8 17 -17z m43 -39 c3 -8 2 -12 -4 -9 -6 3 -10 10
-10 16 0 14 7 11 14 -7z m3065 -1 c-19 -25 -80 -83 -87 -83 -4 0 16 23 43 50
50 51 68 64 44 33z m-2994 -63 c12 -19 -12 -10 -31 11 -19 22 -19 22 3 10 12
-6 25 -16 28 -21z m57 -64 c23 -25 48 -49 53 -55 11 -12 71 -67 133 -123 23
-21 39 -38 35 -38 -5 -1 4 -7 19 -16 18 -9 25 -20 21 -30 -3 -8 -2 -14 3 -12
16 4 53 -22 59 -42 4 -11 10 -18 15 -15 5 3 11 1 15 -5 3 -5 1 -10 -5 -10 -6
0 -9 -4 -5 -10 3 -5 11 -7 18 -4 18 7 62 -42 47 -51 -8 -5 -32 12 -62 44 -28
28 -47 51 -44 51 4 0 1 6 -6 14 -7 8 -16 12 -19 10 -9 -5 -69 63 -69 77 0 6
-5 7 -11 4 -6 -4 -13 2 -16 14 -3 12 -11 21 -19 21 -7 0 -19 11 -26 24 -7 14
-16 25 -21 25 -13 1 -97 88 -90 94 3 4 2 7 -3 7 -10 0 -74 55 -74 64 0 12 9 5
52 -38z m2828 9 c-7 -9 -15 -13 -17 -11 -6 6 20 36 26 30 2 -2 -2 -10 -9 -19z
m-49 -58 c-19 -19 -21 -20 -21 -4 0 10 5 15 11 12 6 -4 13 3 16 16 4 14 8 18
11 10 2 -7 -5 -23 -17 -34z m-39 -24 c-6 -2 -10 -9 -6 -14 3 -5 1 -8 -5 -7 -6
2 -17 -8 -24 -22 -7 -13 -23 -30 -35 -36 -13 -6 -22 -15 -21 -20 1 -5 -9 -15
-22 -21 -13 -7 -20 -13 -14 -13 5 0 -14 -23 -43 -50 -29 -28 -58 -47 -64 -44
-7 5 -8 2 -4 -5 9 -14 -22 -53 -35 -45 -5 3 -16 -1 -23 -9 -12 -11 -12 -17 -3
-28 9 -9 7 -9 -7 1 -17 13 -14 18 49 77 38 35 75 63 84 64 11 0 12 2 3 6 -15
6 35 53 58 54 11 0 12 2 2 6 -10 4 -7 10 10 21 13 9 28 17 33 17 6 1 9 7 7 14
-1 7 2 10 8 6 5 -3 10 -1 10 6 0 16 30 49 44 48 6 0 6 -3 -2 -6z m-330 -344
c-12 -9 -22 -20 -22 -24 0 -11 -84 -90 -93 -87 -4 1 -10 -5 -13 -13 -3 -8 -10
-12 -16 -9 -5 3 -8 -2 -6 -12 2 -11 -3 -19 -12 -19 -8 -1 -14 -7 -12 -14 2 -9
-3 -11 -13 -7 -10 3 -13 2 -10 -5 14 -22 -27 -42 -63 -30 -6 2 82 76 89 74 4
-2 11 6 14 17 4 11 13 20 21 20 8 0 13 4 10 9 -3 4 5 18 18 30 18 17 25 19 29
9 3 -7 6 -4 6 8 1 27 11 36 27 23 9 -8 11 -6 8 9 -3 10 2 25 12 33 11 9 15 9
10 2 -4 -7 -2 -13 3 -13 6 0 11 7 11 16 0 9 5 12 12 8 8 -5 5 -13 -10 -25z
m-1969 -16 c-7 -3 -9 -11 -6 -20 5 -12 2 -12 -15 3 -26 22 -27 25 -5 17 11 -4
14 -3 9 5 -5 8 -1 10 10 5 10 -4 13 -8 7 -10z m48 -40 c17 -16 35 -38 40 -51
5 -13 13 -21 19 -17 5 3 21 -13 35 -35 15 -24 30 -38 37 -34 7 5 8 3 3 -6 -4
-7 -2 -16 6 -21 11 -7 11 -9 -2 -9 -15 0 -54 35 -54 49 0 3 -3 5 -7 4 -4 -2
-5 6 -3 17 3 13 -1 17 -11 13 -8 -3 -14 0 -14 6 0 6 -3 10 -7 9 -13 -4 -83 69
-83 86 0 22 5 20 41 -11z m1027 -280 c50 -9 92 -21 92 -26 0 -4 9 -5 20 -2 13
4 22 1 26 -9 3 -8 12 -12 20 -9 7 3 43 -16 79 -41 36 -25 68 -46 70 -46 9 0
120 -114 120 -122 0 -5 5 -12 11 -16 5 -4 16 -23 24 -42 7 -19 22 -45 31 -58
21 -27 46 -100 54 -157 11 -71 12 -250 2 -262 -5 -7 -7 -22 -4 -32 3 -11 -1
-28 -9 -38 -7 -10 -14 -24 -14 -32 0 -22 -40 -102 -67 -134 -13 -16 -23 -34
-23 -40 0 -15 -101 -110 -148 -138 -20 -13 -46 -31 -56 -41 -11 -10 -22 -18
-25 -19 -29 -4 -45 -9 -50 -16 -9 -12 -108 -41 -166 -48 -112 -14 -240 -1
-312 31 -17 8 -35 14 -39 14 -13 0 -119 54 -122 63 -2 4 -8 7 -13 7 -18 0
-139 124 -139 142 0 10 -9 22 -20 28 -11 6 -20 17 -20 25 0 8 -6 18 -12 22
-19 12 -47 66 -63 120 -22 76 -35 247 -24 312 13 67 38 151 52 169 5 6 6 12 3
12 -4 0 0 7 8 16 9 8 16 24 16 35 0 10 5 19 11 19 5 0 17 16 25 35 8 19 21 35
29 35 9 0 18 8 22 18 9 26 34 52 44 46 5 -3 6 2 3 10 -4 10 -1 16 10 16 8 0
20 9 26 20 6 11 17 20 25 20 8 0 15 4 15 8 0 4 16 14 35 21 19 7 35 16 35 21
0 4 17 11 38 15 20 4 51 13 67 20 39 19 141 42 185 44 19 1 77 -6 128 -16z
m-1164 -935 c4 3 4 -2 0 -12 -5 -14 -9 -15 -15 -4 -7 10 -9 11 -9 0 0 -7 -4
-10 -10 -7 -5 3 -10 13 -10 21 0 11 4 12 19 5 10 -6 21 -7 25 -3z m2181 -9 c5
-6 1 -9 -10 -10 -12 0 -15 -3 -7 -6 7 -3 20 1 29 9 14 11 16 11 8 -1 -7 -11
-2 -13 26 -8 20 4 29 3 21 -2 -8 -4 -13 -12 -12 -17 1 -5 -4 -10 -11 -13 -6
-2 -9 1 -5 7 3 6 -7 10 -27 11 -50 0 -92 16 -95 35 -3 15 2 16 35 10 21 -3 42
-10 48 -15z m-2251 -26 c-14 -10 -19 -10 -26 0 -5 8 -11 8 -15 2 -10 -13 -64
-37 -70 -31 -2 2 5 7 16 11 12 3 19 11 16 16 -4 5 -1 10 4 10 20 3 26 4 38 12
6 4 14 1 17 -5 3 -9 9 -7 17 7 9 15 14 16 17 6 3 -8 -3 -20 -14 -28z m-94 -3
c0 -5 -4 -10 -10 -10 -5 0 -10 5 -10 10 0 6 5 10 10 10 6 0 10 -4 10 -10z
m2445 0 c-3 -5 -1 -10 6 -10 10 0 10 -3 2 -11 -6 -6 -16 -8 -22 -5 -12 8 -4
36 11 36 5 0 6 -4 3 -10z m-2479 -23 c1 -7 -7 -14 -17 -14 -11 -1 -19 2 -19 7
0 6 -11 5 -26 0 -32 -13 -34 -12 -34 2 0 6 2 9 5 6 3 -3 22 0 43 7 39 14 45
13 48 -8z m2551 7 c13 -2 37 -10 54 -18 17 -9 35 -13 39 -11 5 3 21 0 37 -6
15 -7 34 -13 42 -15 14 -3 33 -26 26 -32 -2 -2 -10 0 -17 4 -13 8 -29 13 -60
16 -9 1 -16 5 -16 8 2 18 -4 23 -12 10 -9 -13 -13 -12 -26 5 -11 14 -18 16
-21 8 -3 -9 -10 -10 -22 -3 -10 5 -21 6 -25 3 -3 -3 -6 -1 -6 6 0 9 -8 11 -24
7 -20 -5 -23 -3 -19 14 3 11 10 17 16 13 6 -4 22 -8 34 -9z m-2671 -29 c-13
-10 -15 -15 -6 -15 7 0 11 -3 8 -6 -4 -3 -17 0 -30 7 l-23 13 25 7 c40 11 46
9 26 -6z m-52 -11 c9 -3 16 -10 16 -14 0 -7 -56 -19 -102 -23 -10 -1 -18 -6
-18 -12 0 -5 -5 -3 -10 5 -12 19 14 31 49 23 17 -4 22 -2 17 6 -6 9 0 10 21 6
21 -5 24 -4 13 4 -17 12 -10 14 14 5z m93 0 c-3 -3 -12 -4 -19 -1 -8 3 -5 6 6
6 11 1 17 -2 13 -5z m2859 -33 c-3 -4 7 -8 22 -8 51 -1 70 -7 65 -20 -4 -9 -9
-10 -17 -4 -6 5 -26 11 -45 13 -31 3 -59 28 -31 28 6 0 9 -4 6 -9z m-3091 -20
c-3 -6 -11 -8 -17 -5 -6 4 -5 9 3 15 16 10 23 4 14 -10z m-35 -1 c0 -13 -48
-32 -60 -25 -5 3 -12 1 -15 -5 -4 -6 -15 -8 -26 -5 -10 4 -19 2 -19 -3 0 -5
-7 -9 -16 -9 -14 0 -14 2 2 14 10 7 28 13 40 13 13 0 26 5 29 10 4 6 15 8 26
5 11 -4 19 -2 19 4 0 6 5 11 10 11 6 0 10 -5 10 -10z m3268 -6 c12 -4 22 -14
22 -23 0 -11 -3 -12 -8 -4 -4 6 -16 11 -26 10 -10 -1 -21 4 -23 11 -5 13 1 15
35 6z m68 -23 c5 -6 20 -12 34 -15 81 -16 89 -20 75 -33 -4 -5 -10 -2 -12 5
-3 6 -9 10 -14 6 -5 -3 -15 -2 -21 2 -12 8 -24 10 -72 17 -11 1 -21 8 -24 15
-4 14 20 16 34 3z m-3499 -14 c0 -7 -9 -14 -19 -14 -23 -2 -24 14 0 20 9 3 17
5 18 6 0 0 1 -5 1 -12z m-73 -22 c-4 -8 -10 -12 -15 -9 -5 3 -14 2 -21 -2 -7
-4 -26 -9 -43 -10 -24 -2 -20 1 20 16 63 23 66 23 59 5z m3731 -10 c24 -1 115
-29 115 -36 0 -4 -21 0 -47 8 -27 9 -58 16 -70 16 -12 -1 -24 6 -27 14 -4 9
-2 11 7 6 6 -4 17 -8 22 -8z m-3850 -25 c-3 -5 -12 -7 -20 -3 -21 7 -19 13 6
13 11 0 18 -4 14 -10z m-50 -10 c3 -6 -1 -7 -9 -4 -18 7 -21 14 -7 14 6 0 13
-4 16 -10z m-35 -14 c0 -2 -11 -6 -25 -8 -14 -3 -25 -1 -25 3 0 5 11 9 25 9
14 0 25 -2 25 -4z m4120 -6 c0 -5 -5 -10 -11 -10 -5 0 -7 5 -4 10 3 6 8 10 11
10 2 0 4 -4 4 -10z m-4190 -10 c0 -5 -8 -10 -17 -10 -15 0 -16 2 -3 10 19 12
20 12 20 0z m4230 -2 c0 -4 -4 -8 -9 -8 -6 0 -12 4 -15 8 -3 5 1 9 9 9 8 0 15
-4 15 -9z m-4294 -13 c-11 -8 -27 -15 -35 -15 -9 1 -2 7 14 15 39 18 44 18 21
0z m4339 -3 c-3 -3 -11 0 -18 7 -9 10 -8 11 6 5 10 -3 15 -9 12 -12z m-4478
-38 c-3 -3 -12 -4 -19 -1 -8 3 -5 6 6 6 11 1 17 -2 13 -5z m4674 -12 c-7 -2
-18 1 -23 6 -8 8 -4 9 13 5 13 -4 18 -8 10 -11z m116 -28 c-3 -3 -12 -4 -19
-1 -8 3 -5 6 6 6 11 1 17 -2 13 -5z m-2773 -409 c-3 -5 2 -1 10 9 14 18 16 18
16 3 0 -10 -6 -20 -12 -22 -7 -3 -13 -23 -14 -47 0 -23 -7 -46 -15 -52 -8 -6
-13 -19 -11 -28 2 -10 -2 -18 -10 -18 -10 0 -9 -3 2 -10 12 -8 12 -12 2 -18
-7 -5 -10 -16 -6 -25 3 -10 1 -17 -5 -17 -6 0 -11 6 -11 13 0 8 -4 7 -10 -3
-5 -8 -10 -10 -10 -4 0 5 4 14 10 20 5 5 11 23 13 39 8 66 42 193 49 182 4 -6
4 -16 2 -22z m587 15 c3 -20 4 -25 12 -37 4 -7 3 -21 -3 -32 -7 -13 -7 -22 0
-26 5 -3 10 -1 10 6 0 7 3 10 6 7 3 -4 0 -17 -7 -30 -12 -22 -13 -22 -24 17
-7 25 -8 49 -3 64 8 21 7 22 -7 11 -12 -10 -15 -10 -15 2 0 24 28 41 31 18z
m36 -122 c-2 -7 2 -28 10 -46 8 -19 10 -31 4 -28 -5 4 -9 -2 -8 -13 0 -11 6
-17 14 -14 9 3 14 -5 15 -23 1 -16 2 -36 4 -44 1 -8 2 -18 3 -22 1 -5 0 -10
-1 -11 -2 -2 3 -12 11 -21 13 -15 13 -19 1 -26 -8 -5 -15 -8 -16 -7 -4 3 -16
71 -18 94 0 11 -4 20 -7 18 -3 -2 -10 14 -16 36 -5 21 -6 39 -2 39 5 0 9 7 9
16 0 8 -4 13 -9 10 -14 -9 -20 16 -9 37 10 20 22 23 15 5z m-674 -153 c-7 -21
-13 -19 -13 6 0 11 4 18 10 14 5 -3 7 -12 3 -20z m-22 -67 c-6 -10 -9 -23 -6
-28 4 -6 1 -10 -5 -10 -6 0 -9 -4 -6 -9 8 -13 -14 -71 -27 -71 -7 0 -6 -5 3
-11 11 -7 12 -12 3 -15 -7 -3 -10 -11 -7 -18 3 -7 -2 -13 -11 -13 -17 0 -20
13 -5 22 6 4 9 12 8 18 -1 7 6 27 16 46 11 21 14 36 8 40 -7 4 -5 26 6 65 15
56 16 58 25 31 7 -19 6 -34 -2 -47z m765 -60 c-3 -13 -6 -32 -7 -43 0 -14 -3
-11 -10 10 -10 34 -5 55 12 55 7 0 9 -9 5 -22z m26 -101 c1 -15 4 -30 9 -32 4
-3 5 -14 2 -25 -3 -12 0 -20 7 -20 7 0 10 -7 6 -17 -4 -9 -1 -20 6 -25 10 -6
9 -8 -3 -8 -15 0 -28 33 -34 90 -14 117 -14 124 -5 95 6 -16 11 -43 12 -58z
m-852 -53 c-5 -12 -6 -24 -4 -27 3 -3 1 -8 -4 -11 -6 -3 -10 8 -9 27 0 19 6
34 13 34 9 0 10 -7 4 -23z m-17 -60 c3 -3 2 -14 -3 -23 -5 -9 -12 -33 -15 -53
-3 -21 -10 -38 -15 -38 -4 0 -7 -8 -5 -17 1 -10 -1 -22 -5 -28 -7 -9 -17 -54
-22 -92 -1 -7 -6 -13 -11 -13 -5 0 -6 -8 -2 -17 5 -14 3 -15 -5 -7 -9 9 -8 21
5 48 10 20 15 39 12 43 -4 3 0 21 8 39 8 19 11 34 8 34 -3 0 0 7 7 15 6 8 9
19 6 24 -4 5 -2 12 4 16 6 4 8 11 4 16 -3 5 0 16 6 24 6 8 9 19 5 25 -7 11 7
14 18 4z m911 -43 c4 -5 2 -20 -4 -33 -8 -19 -9 -20 -8 -3 2 11 -1 26 -5 33
-5 6 -4 12 2 12 5 0 12 -4 15 -9z m26 -100 c0 -34 -12 -18 -15 20 -2 22 0 27
6 18 5 -8 9 -25 9 -38z m10 -35 c0 -3 -4 -8 -10 -11 -5 -3 -10 -1 -10 4 0 6 5
11 10 11 6 0 10 -2 10 -4z m14 -65 c-6 -6 -24 19 -24 34 1 6 7 1 15 -9 8 -11
12 -22 9 -25z m11 -38 c0 -12 3 -25 8 -29 10 -11 9 -24 -4 -24 -5 0 -8 4 -4 9
3 5 0 13 -6 16 -5 4 -8 14 -4 23 3 8 0 19 -7 24 -10 7 -9 9 2 5 8 -2 15 -13
15 -24z m-1058 -38 c0 -8 -4 -12 -9 -9 -5 3 -6 10 -3 15 9 13 12 11 12 -6z
m-26 -96 c-12 -34 -21 -68 -21 -75 0 -7 -4 -15 -9 -18 -10 -6 6 63 29 126 23
62 23 35 1 -33z m1109 50 c0 -6 -4 -7 -10 -4 -5 3 -10 11 -10 16 0 6 5 7 10 4
6 -3 10 -11 10 -16z m7 -41 c0 -7 4 -22 8 -33 6 -14 5 -17 -2 -10 -15 14 -26
55 -15 55 5 0 9 -6 9 -12z m25 -83 c3 -14 1 -25 -3 -25 -5 0 -9 4 -9 9 0 5 -3
16 -6 25 -3 9 -2 16 4 16 5 0 12 -11 14 -25z m-1190 -97 c-8 -8 -9 -4 -5 13 4
13 8 18 11 10 2 -7 -1 -18 -6 -23z m-9 -48 c-3 -12 -8 -19 -11 -16 -5 6 5 36
12 36 2 0 2 -9 -1 -20z m-23 -67 c-11 -17 -11 -17 -6 0 3 10 6 24 7 30 0 9 2
9 5 0 3 -7 0 -20 -6 -30z m1288 -48 c-3 -3 -9 2 -12 12 -6 14 -5 15 5 6 7 -7
10 -15 7 -18z"/>
<path d="M11287 13839 c7 -7 15 -10 18 -7 3 3 -2 9 -12 12 -14 6 -15 5 -6 -5z"/>
<path d="M11430 13700 c0 -5 5 -10 11 -10 5 0 7 5 4 10 -3 6 -8 10 -11 10 -2
0 -4 -4 -4 -10z"/>
<path d="M13351 13587 c-8 -10 -7 -14 4 -14 8 0 12 4 9 8 -2 4 2 10 8 12 8 4
9 6 2 6 -6 1 -17 -5 -23 -12z"/>
<path d="M11530 13590 c0 -5 5 -10 11 -10 5 0 7 5 4 10 -3 6 -8 10 -11 10 -2
0 -4 -4 -4 -10z"/>
<path d="M12398 12886 c-101 -27 -162 -106 -162 -211 0 -126 90 -217 215 -217
67 0 110 17 152 60 95 97 89 237 -13 325 -25 21 -59 39 -79 43 -20 3 -43 7
-51 9 -8 2 -36 -2 -62 -9z"/>
<path d="M13510 12390 c0 -5 5 -10 11 -10 5 0 7 5 4 10 -3 6 -8 10 -11 10 -2
0 -4 -4 -4 -10z"/>
<path d="M1956 15409 c32 -35 175 -153 251 -207 100 -71 292 -185 456 -271
115 -61 138 -70 143 -56 4 9 5 17 3 19 -2 2 -69 34 -149 73 -175 84 -332 173
-460 261 -102 71 -240 182 -240 194 0 5 -5 8 -12 8 -6 0 -3 -9 8 -21z"/>
<path d="M13958 15393 c7 -3 16 -2 19 1 4 3 -2 6 -13 5 -11 0 -14 -3 -6 -6z"/>
<path d="M10925 15370 c3 -5 8 -10 11 -10 2 0 4 5 4 10 0 6 -5 10 -11 10 -5 0
-7 -4 -4 -10z"/>
<path d="M10800 15300 c0 -5 7 -7 15 -4 8 4 15 8 15 10 0 2 -7 4 -15 4 -8 0
-15 -4 -15 -10z"/>
<path d="M10498 15063 c7 -3 16 -2 19 1 4 3 -2 6 -13 5 -11 0 -14 -3 -6 -6z"/>
<path d="M14376 15041 c-3 -5 2 -15 12 -22 15 -12 16 -12 5 2 -7 9 -10 19 -6
22 3 4 4 7 0 7 -3 0 -8 -4 -11 -9z"/>
<path d="M10399 14913 c-13 -16 -12 -17 4 -4 9 7 17 15 17 17 0 8 -8 3 -21
-13z"/>
<path d="M10246 14832 c-3 -4 4 -9 15 -9 23 -2 25 3 4 10 -8 4 -16 3 -19 -1z"/>
<path d="M10105 14660 c-3 -5 -1 -10 4 -10 6 0 11 5 11 10 0 6 -2 10 -4 10 -3
0 -8 -4 -11 -10z"/>
<path d="M9949 14403 c-13 -16 -12 -17 4 -4 16 13 21 21 13 21 -2 0 -10 -8
-17 -17z"/>
<path d="M9894 14349 c-3 -6 -2 -15 3 -20 5 -5 9 -1 9 11 0 23 -2 24 -12 9z"/>
<path d="M12031 14244 c0 -11 3 -14 6 -6 3 7 2 16 -1 19 -3 4 -6 -2 -5 -13z"/>
<path d="M9736 14144 c-20 -19 -20 -20 3 -20 12 0 17 5 13 15 -4 10 -1 12 8 6
9 -5 11 -4 6 3 -9 15 -12 15 -30 -4z"/>
<path d="M9695 14140 c3 -5 8 -10 11 -10 2 0 4 5 4 10 0 6 -5 10 -11 10 -5 0
-7 -4 -4 -10z"/>
<path d="M8426 13116 c-3 -23 -10 -132 -17 -242 -27 -476 42 -993 195 -1456
114 -347 282 -692 479 -988 124 -185 371 -495 395 -495 6 0 98 104 203 230
106 127 226 269 267 317 45 54 72 93 69 102 -4 10 -1 13 7 10 15 -6 38 19 34
37 -2 7 2 13 8 14 6 0 18 7 27 17 14 13 14 18 3 27 -11 9 -16 9 -22 0 -5 -8
-3 -9 6 -4 10 6 12 4 7 -9 -4 -10 -7 -19 -7 -22 0 -2 -7 -1 -15 2 -8 4 -12 11
-8 17 4 6 0 8 -10 4 -11 -4 -14 -2 -10 9 6 17 -24 67 -36 59 -12 -7 -34 22
-27 34 4 5 -1 16 -9 24 -8 9 -15 20 -15 26 0 10 -13 15 -31 13 -4 -1 -20 27
-37 61 -17 34 -47 80 -66 102 -20 22 -36 46 -36 53 0 7 -11 30 -25 50 -14 20
-25 42 -25 48 0 6 -11 23 -25 38 -14 15 -25 33 -24 39 4 33 -3 55 -18 59 -11
3 -23 23 -32 54 -7 27 -24 65 -38 85 -13 20 -21 43 -18 51 3 8 -1 21 -10 28
-8 7 -15 25 -15 41 0 18 -5 29 -14 29 -18 0 -27 45 -12 61 8 9 7 10 -3 4 -11
-6 -13 -4 -8 8 4 10 2 16 -6 14 -7 -1 -13 11 -15 28 -2 17 -7 35 -12 40 -4 6
-11 31 -14 57 -4 26 -14 54 -22 62 -8 9 -14 34 -14 64 0 27 -9 78 -21 113 -11
35 -21 95 -22 133 -1 38 -3 62 -5 53 -2 -10 -7 -17 -11 -17 -11 0 -18 85 -17
217 1 107 -9 143 -16 58 -2 -22 -2 57 -1 175 3 222 8 284 23 275 5 -3 2 8 -6
25 -9 17 -20 27 -26 24 -5 -4 -20 -2 -31 4 -12 6 -150 36 -307 66 -157 30
-346 68 -421 84 l-137 29 -6 -41z m911 -162 c-3 -3 -12 -4 -19 -1 -8 3 -5 6 6
6 11 1 17 -2 13 -5z"/>
<path d="M16459 13156 c-4 -4 -475 -101 -694 -142 -77 -14 -152 -32 -167 -39
-16 -8 -28 -9 -28 -4 0 6 -5 7 -10 4 -6 -4 -8 -11 -5 -16 4 -5 -4 -10 -17 -10
-17 -1 -18 -3 -5 -6 9 -2 15 -9 12 -14 -4 -5 -1 -9 4 -9 6 0 11 7 11 16 0 11
5 14 16 10 9 -3 18 -6 22 -6 3 0 -2 -6 -11 -13 -14 -10 -19 -35 -24 -130 -6
-115 -6 -117 15 -117 19 0 22 -6 22 -40 0 -33 -3 -40 -20 -40 -18 0 -19 -6
-18 -70 0 -39 -2 -73 -5 -76 -3 -4 0 -13 8 -21 16 -16 21 -73 6 -73 -4 0 -12
-32 -15 -71 -6 -56 -10 -69 -22 -65 -12 5 -12 2 -3 -15 7 -13 7 -24 2 -28 -14
-9 -25 -61 -13 -61 5 0 10 -9 10 -21 0 -11 -4 -17 -10 -14 -5 3 -11 0 -11 -7
-1 -7 -3 -24 -4 -38 -1 -14 -8 -52 -15 -85 -12 -60 -16 -87 -19 -135 -1 -18
-4 -21 -10 -12 -13 21 -22 -13 -16 -57 4 -25 3 -30 -3 -16 -8 18 -9 17 -15 -7
-4 -15 -12 -40 -18 -55 -7 -15 -14 -44 -16 -63 -2 -19 -11 -48 -19 -64 -7 -16
-14 -34 -14 -40 0 -20 -45 -101 -63 -115 -12 -8 -18 -24 -17 -45 3 -49 1 -56
-15 -50 -11 4 -20 -5 -31 -32 -24 -62 -38 -88 -51 -97 -6 -4 -14 -25 -18 -47
-4 -22 -11 -40 -16 -40 -5 0 -9 -7 -9 -15 0 -8 -8 -19 -18 -24 -10 -5 -24 -22
-32 -38 -7 -15 -27 -40 -43 -55 -16 -16 -25 -28 -18 -28 6 0 11 -5 11 -11 0
-13 -55 -69 -68 -69 -6 0 -8 -10 -4 -22 3 -14 1 -19 -6 -14 -7 4 -17 -3 -24
-18 -6 -14 -17 -26 -25 -26 -7 0 -13 -7 -13 -15 0 -8 -7 -15 -15 -15 -11 0
-14 -9 -11 -35 4 -34 -7 -55 -18 -36 -4 5 -2 12 4 16 13 8 13 25 0 25 -5 0
-10 -5 -10 -11 0 -7 -8 -18 -17 -25 -17 -13 -17 -14 1 -8 15 6 17 3 11 -14 -4
-13 -2 -22 4 -22 6 0 10 -4 9 -9 -2 -5 20 -36 48 -68 57 -66 445 -530 487
-583 l28 -35 60 65 c34 36 105 121 159 190 461 590 745 1281 835 2035 37 302
25 981 -16 941z m-1339 -2166 c0 -5 -7 -7 -15 -4 -8 4 -15 8 -15 10 0 2 7 4
15 4 8 0 15 -4 15 -10z"/>
<path d="M9368 12948 c5 -5 16 -8 23 -6 8 3 3 7 -10 11 -17 4 -21 3 -13 -5z"/>
<path d="M9766 11173 c-6 -14 -5 -15 5 -6 7 7 10 15 7 18 -3 3 -9 -2 -12 -12z"/>
<path d="M13847 9903 c4 -18 1 -23 -16 -23 -13 0 -19 -5 -15 -14 9 -25 -43
-49 -92 -41 -43 6 -50 2 -45 -27 2 -12 -63 -36 -130 -50 -40 -8 -64 -19 -71
-31 -7 -13 -16 -17 -33 -13 -29 7 -55 -2 -55 -20 0 -8 -2 -14 -4 -14 -2 0 -27
-4 -55 -10 -35 -6 -59 -6 -71 0 -11 6 -21 6 -24 1 -4 -5 -1 -11 6 -13 7 -3
-17 -5 -52 -6 -66 -2 -83 -8 -62 -21 8 -4 -5 -7 -30 -7 -26 1 -42 -3 -41 -10
1 -7 -15 -9 -48 -6 -41 4 -49 2 -49 -12 0 -19 -11 -20 -63 -5 -32 8 -42 8 -56
-5 -17 -15 -74 -18 -301 -17 -52 0 -160 -1 -238 -3 -79 -2 -139 0 -132 4 6 4
-27 10 -74 14 -48 4 -91 4 -96 1 -9 -5 -92 13 -220 49 -30 9 -72 16 -92 16
-20 0 -40 5 -43 10 -3 6 -15 10 -26 10 -11 0 -19 7 -19 16 0 12 -6 15 -26 10
-33 -9 -134 15 -134 31 0 7 -10 13 -23 13 -12 0 -32 6 -43 14 -11 8 -37 18
-58 21 -26 5 -36 12 -32 21 4 11 -5 14 -39 14 -25 0 -45 4 -45 8 0 11 -66 42
-89 42 -23 0 -51 29 -30 31 8 1 17 1 21 0 4 0 5 6 2 14 -5 13 -8 13 -21 0 -17
-18 -33 -19 -33 -3 0 17 -11 3 -15 -19 -1 -10 -8 -17 -15 -15 -8 2 -10 -3 -7
-13 4 -8 3 -15 -2 -15 -5 0 -58 -82 -117 -182 -60 -101 -159 -266 -220 -368
l-112 -185 112 -56 c279 -142 655 -269 979 -333 304 -61 414 -70 797 -70 281
0 381 3 482 17 481 65 869 179 1282 376 69 33 126 62 126 64 0 3 -73 126 -161
273 -191 317 -199 332 -240 406 -42 77 -67 102 -85 87 -18 -15 -18 -5 0 14 13
13 13 17 1 33 -13 18 -14 18 -8 -3z m31 -78 c-3 -3 -9 2 -12 12 -6 14 -5 15 5
6 7 -7 10 -15 7 -18z m-178 -25 c0 -5 -2 -10 -4 -10 -3 0 -8 5 -11 10 -3 6 -1
10 4 10 6 0 11 -4 11 -10z m-1627 -247 c-7 -2 -19 -2 -25 0 -7 3 -2 5 12 5 14
0 19 -2 13 -5z"/>
<path d="M12380 9580 c0 -5 5 -10 10 -10 6 0 10 5 10 10 0 6 -4 10 -10 10 -5
0 -10 -4 -10 -10z"/>
<path d="M6121 4958 c-86 -191 -211 -522 -225 -595 -2 -10 -9 -36 -15 -58 -27
-103 -39 -197 -37 -295 3 -109 6 -133 27 -172 42 -82 111 -128 191 -128 22 0
73 11 114 25 42 14 81 22 87 19 7 -4 9 -4 5 1 -4 4 39 35 95 69 176 106 407
296 610 504 l69 69 -440 312 c-242 171 -443 311 -446 311 -4 0 -19 -28 -35
-62z"/>
<path d="M18315 4719 c-231 -165 -427 -304 -434 -308 -23 -14 15 -56 190 -219
253 -233 429 -360 610 -440 71 -31 95 -37 154 -37 87 0 131 20 172 78 86 123
71 362 -45 722 -31 94 -77 214 -106 278 -14 32 -26 60 -26 63 0 18 -75 164
-84 163 -6 -1 -200 -136 -431 -300z"/>
<path d="M6940 4277 c-221 -216 -405 -365 -569 -461 -44 -26 -81 -50 -81 -52
0 -9 107 50 190 104 114 74 181 125 335 257 193 166 269 240 261 253 -4 7 -10
12 -14 12 -4 0 -59 -51 -122 -113z"/>
<path d="M17836 4382 c-11 -18 4 -35 112 -134 254 -230 455 -381 612 -457 97
-47 90 -40 -28 27 -158 90 -365 258 -600 486 -45 45 -84 82 -86 84 -2 2 -7 -1
-10 -6z"/>
</g>
</svg>
